# xmcd CD database file generated by Grip 2.94
# 
# Track frame offsets:
#       150
#       10955
#       18050
#       31990
#       40800
#       52477
#       60005
#       69790
#       76077
#       96492
#       107827
#       118572
#       133437
#       158262
#       178572
#       186112
# 
# Disc length: 2582 seconds
# 
# Revision: 3
# Processed by: cddbd v1.4b41PL1 Copyright (c) Steve Scherf et al.
# Submitted via: Grip 2.94
# 
DISCID=c40a1410
DTITLE=The All-American Chorus - We Were There!
DYEAR=1900
DGENRE=
TTITLE0=Entrance Chant
TTITLE1=Star Spangled Banner
TTITLE2=Armed Forces Medley
TTITLE3=This is My Country
TTITLE4=America The Beautiful
TTITLE5=Don't Sit Under the Apple Tree
TTITLE6=This is the Army Mr. Jones
TTITLE7=Dog Faced Soldier
TTITLE8=Blood Upon the Risers
TTITLE9=God Bless the USA
TTITLE10=I Believe
TTITLE11=Last Full Measure of Devotion
TTITLE12=The Airborne Medley
TTITLE13=We Were There
TTITLE14=All-American Soldier
TTITLE15=Exit Chant
EXTD=
EXTT0=
EXTT1=
EXTT2=
EXTT3=
EXTT4=
EXTT5=
EXTT6=
EXTT7=
EXTT8=
EXTT9=
EXTT10=
EXTT11=
EXTT12=
EXTT13=
EXTT14=
EXTT15=
PLAYORDER=
